<svg width="80" height="41" viewBox="0 0 80 41" fill="none" xmlns="http://www.w3.org/2000/svg">
<g filter="url(#filter0_d)">
<rect x="4" width="34" height="33" rx="5" fill="#302C2D"/>
</g>
<path d="M34 18.5C34 23.7467 29.7467 28 24.5 28L15 28L15 18.5C15 13.2533 19.2533 9 24.5 9C29.7467 9 34 13.2533 34 18.5Z" fill="black"/>
<path d="M34 18.5C34 23.7467 29.7467 28 24.5 28L15 28L15 18.5C15 13.2533 19.2533 9 24.5 9C29.7467 9 34 13.2533 34 18.5Z" fill="#FFA849"/>
<path d="M8.71094 7.98438H11.7461V28H8.71094V7.98438ZM17.0312 10.375H13.8086V7.98438H23.2773V10.375H20.0664V28H17.0312V10.375Z" fill="white"/>
<path d="M43.998 15.3242H45.7686V25.6055H48.1816V27H43.998V15.3242ZM50.4922 27.1025C50.2005 27.1025 49.9408 27.0456 49.7129 26.9316C49.4896 26.8132 49.3005 26.6536 49.1455 26.4531C48.9906 26.2526 48.8721 26.0156 48.79 25.7422C48.7126 25.4642 48.6738 25.1634 48.6738 24.8398C48.6738 24.4525 48.7217 24.1084 48.8174 23.8076C48.9131 23.5068 49.0521 23.2357 49.2344 22.9941C49.4212 22.7526 49.6514 22.5339 49.9248 22.3379C50.1982 22.1374 50.515 21.9482 50.875 21.7705C51.0482 21.6839 51.2419 21.5973 51.4561 21.5107C51.6748 21.4196 51.8685 21.3421 52.0371 21.2783V20.0342C52.0371 19.8519 52.0303 19.6833 52.0166 19.5283C52.0029 19.3688 51.9688 19.2321 51.9141 19.1182C51.8639 18.9997 51.7865 18.9085 51.6816 18.8447C51.5768 18.7764 51.4333 18.7422 51.251 18.7422C51.1279 18.7422 51.0072 18.765 50.8887 18.8105C50.7747 18.8561 50.6722 18.9336 50.5811 19.043C50.4945 19.1523 50.4238 19.2982 50.3691 19.4805C50.319 19.6628 50.2939 19.8883 50.2939 20.1572V20.5674H48.9746C48.9336 20.3896 48.9017 20.2279 48.8789 20.082C48.8607 19.9316 48.8516 19.7835 48.8516 19.6377C48.8516 19.2868 48.9108 18.9769 49.0293 18.708C49.1523 18.4391 49.321 18.2135 49.5352 18.0312C49.7539 17.849 50.0137 17.7122 50.3145 17.6211C50.6152 17.5254 50.9456 17.4775 51.3057 17.4775C51.7751 17.4775 52.1647 17.5299 52.4746 17.6348C52.7845 17.735 53.0306 17.8877 53.2129 18.0928C53.3997 18.2979 53.5296 18.5553 53.6025 18.8652C53.68 19.1751 53.7188 19.5374 53.7188 19.9521V27H52.4336L52.3105 26.1934C52.1237 26.4622 51.873 26.681 51.5586 26.8496C51.2487 27.0182 50.8932 27.1025 50.4922 27.1025ZM51.2578 25.7695C51.4036 25.7695 51.5449 25.7331 51.6816 25.6602C51.8229 25.5827 51.9414 25.4893 52.0371 25.3799V22.4336C51.946 22.4701 51.8434 22.5133 51.7295 22.5635C51.6156 22.6136 51.4925 22.6797 51.3604 22.7617C51.2373 22.8392 51.1165 22.9326 50.998 23.042C50.8796 23.1514 50.7725 23.2812 50.6768 23.4316C50.5856 23.582 50.5104 23.7529 50.4512 23.9443C50.3965 24.1312 50.3691 24.3408 50.3691 24.5732C50.3691 24.9333 50.4398 25.2227 50.5811 25.4414C50.7223 25.6602 50.9479 25.7695 51.2578 25.7695ZM55.5098 17.5869H56.8428L57 18.5918V18.5986C57.1367 18.3844 57.2826 18.2067 57.4375 18.0654C57.597 17.9196 57.7611 17.8034 57.9297 17.7168C58.0983 17.6302 58.2692 17.5687 58.4424 17.5322C58.6201 17.4958 58.7956 17.4775 58.9688 17.4775C59.5202 17.4775 59.944 17.6712 60.2402 18.0586C60.541 18.4414 60.6914 19.0179 60.6914 19.7881V27H58.9619V19.8496C58.9619 19.4349 58.8981 19.1478 58.7705 18.9883C58.6429 18.8242 58.4561 18.7422 58.21 18.7422C58.0368 18.7422 57.8636 18.7992 57.6904 18.9131C57.5218 19.027 57.3714 19.1842 57.2393 19.3848V27H55.5098V17.5869ZM63.8906 27.6426C63.8906 28.0482 63.9658 28.3353 64.1162 28.5039C64.2666 28.6725 64.499 28.7568 64.8135 28.7568C64.9411 28.7568 65.0641 28.7363 65.1826 28.6953C65.3011 28.6589 65.4036 28.5882 65.4902 28.4834C65.5814 28.3831 65.6543 28.2419 65.709 28.0596C65.7637 27.8773 65.791 27.6426 65.791 27.3555V25.8721C65.6361 26.0726 65.4355 26.2458 65.1895 26.3916C64.9479 26.5329 64.6471 26.6035 64.2871 26.6035C64.1823 26.6035 64.0592 26.5944 63.918 26.5762C63.7767 26.5534 63.6309 26.5055 63.4805 26.4326C63.3301 26.3597 63.182 26.2503 63.0361 26.1045C62.8903 25.9541 62.7604 25.7536 62.6465 25.5029C62.5326 25.2523 62.4391 24.9401 62.3662 24.5664C62.2979 24.1882 62.2637 23.7324 62.2637 23.1992V20.7246C62.2637 20.2142 62.2979 19.7812 62.3662 19.4258C62.4391 19.0658 62.5326 18.765 62.6465 18.5234C62.7604 18.2819 62.8903 18.0928 63.0361 17.9561C63.1865 17.8193 63.3369 17.7168 63.4873 17.6484C63.6423 17.5755 63.7926 17.5299 63.9385 17.5117C64.0843 17.4935 64.2142 17.4844 64.3281 17.4844C64.556 17.4844 64.7565 17.514 64.9297 17.5732C65.1074 17.6325 65.2601 17.7122 65.3877 17.8125C65.5199 17.9082 65.6315 18.0176 65.7227 18.1406C65.8138 18.2637 65.8913 18.3867 65.9551 18.5098L66.1123 17.5801H67.459V26.6172C67.459 27.1413 67.4089 27.613 67.3086 28.0322C67.2083 28.4561 67.0511 28.8161 66.8369 29.1123C66.6227 29.4131 66.3493 29.6432 66.0166 29.8027C65.6885 29.9622 65.2943 30.042 64.834 30.042C64.5241 30.042 64.2324 30.0146 63.959 29.96C63.6855 29.9053 63.4463 29.8073 63.2412 29.666C63.0361 29.5293 62.8743 29.3402 62.7559 29.0986C62.6374 28.8617 62.5781 28.5586 62.5781 28.1895C62.5781 28.1257 62.585 28.0459 62.5986 27.9502C62.6123 27.8545 62.6351 27.752 62.667 27.6426H63.8906ZM64.875 25.2637C64.9889 25.2637 65.0892 25.2454 65.1758 25.209C65.2669 25.168 65.3467 25.1156 65.415 25.0518C65.488 24.988 65.5495 24.915 65.5996 24.833C65.6543 24.751 65.6999 24.6667 65.7363 24.5801V19.4326C65.6497 19.2412 65.5335 19.0794 65.3877 18.9473C65.2464 18.8105 65.0732 18.7422 64.8682 18.7422C64.7406 18.7422 64.6243 18.765 64.5195 18.8105C64.4147 18.8561 64.3236 18.9427 64.2461 19.0703C64.1686 19.1934 64.1071 19.3665 64.0615 19.5898C64.0205 19.8086 64 20.0934 64 20.4443V23.541C64 23.8919 64.0205 24.179 64.0615 24.4023C64.1071 24.6257 64.1686 24.8011 64.2461 24.9287C64.3236 25.0563 64.4147 25.1452 64.5195 25.1953C64.6289 25.2409 64.7474 25.2637 64.875 25.2637ZM71.5469 27.1025C71.1413 27.1025 70.7812 27.0273 70.4668 26.877C70.1569 26.7266 69.8949 26.4919 69.6807 26.1729C69.4665 25.8538 69.3047 25.446 69.1953 24.9492C69.0859 24.4479 69.0312 23.8464 69.0312 23.1445V21.3672C69.0312 20.7702 69.0745 20.2598 69.1611 19.8359C69.2523 19.4076 69.3685 19.0498 69.5098 18.7627C69.6556 18.471 69.8219 18.2409 70.0088 18.0723C70.2002 17.9036 70.3962 17.776 70.5967 17.6895C70.7972 17.5983 70.9954 17.5413 71.1914 17.5186C71.3919 17.4912 71.5765 17.4775 71.7451 17.4775C72.055 17.4775 72.3535 17.5254 72.6406 17.6211C72.9277 17.7122 73.1807 17.8717 73.3994 18.0996C73.6182 18.3229 73.7913 18.6237 73.9189 19.002C74.0511 19.3802 74.1172 19.8519 74.1172 20.417C74.1172 20.6084 74.1104 20.8021 74.0967 20.998C74.0876 21.194 74.0739 21.3877 74.0557 21.5791C74.0374 21.766 74.0124 21.9482 73.9805 22.126C73.9531 22.3037 73.9235 22.4678 73.8916 22.6182H70.7676V23.5752C70.7676 23.9854 70.7835 24.3317 70.8154 24.6143C70.8473 24.8923 70.8997 25.1178 70.9727 25.291C71.0501 25.4596 71.1527 25.5827 71.2803 25.6602C71.4124 25.7331 71.5765 25.7695 71.7725 25.7695C71.8773 25.7695 71.9798 25.749 72.0801 25.708C72.1803 25.6624 72.2669 25.5895 72.3398 25.4893C72.4173 25.389 72.4788 25.2568 72.5244 25.0928C72.57 24.9242 72.5928 24.7168 72.5928 24.4707V24.1768H74.0352V24.5391C74.0352 25.4323 73.821 26.084 73.3926 26.4941C72.9688 26.8997 72.3535 27.1025 71.5469 27.1025ZM72.5039 21.4561C72.5085 21.4059 72.513 21.3398 72.5176 21.2578C72.5221 21.1712 72.5244 21.0824 72.5244 20.9912C72.529 20.9001 72.5312 20.8112 72.5312 20.7246C72.5312 20.6335 72.5312 20.556 72.5312 20.4922C72.5312 19.8724 72.4583 19.4258 72.3125 19.1523C72.1667 18.8789 71.9502 18.7422 71.6631 18.7422C71.5127 18.7422 71.3805 18.7786 71.2666 18.8516C71.1527 18.9199 71.0592 19.0384 70.9863 19.207C70.9134 19.3711 70.8587 19.5898 70.8223 19.8633C70.7858 20.1367 70.7676 20.4762 70.7676 20.8818V21.4561H72.5039Z" fill="black"/>
<rect x="21" y="16" width="11" height="1" fill="white" fill-opacity="0.64"/>
<rect x="21" y="18" width="11" height="1" fill="white" fill-opacity="0.64"/>
<rect x="21" y="20" width="5" height="1" fill="white" fill-opacity="0.64"/>
<rect x="27" y="20" width="5" height="1" fill="white" fill-opacity="0.64"/>
<defs>
<filter id="filter0_d" x="0" y="0" width="42" height="41" filterUnits="userSpaceOnUse" color-interpolation-filters="sRGB">
<feFlood flood-opacity="0" result="BackgroundImageFix"/>
<feColorMatrix in="SourceAlpha" type="matrix" values="0 0 0 0 0 0 0 0 0 0 0 0 0 0 0 0 0 0 127 0"/>
<feOffset dy="4"/>
<feGaussianBlur stdDeviation="2"/>
<feColorMatrix type="matrix" values="0 0 0 0 0 0 0 0 0 0 0 0 0 0 0 0 0 0 0.25 0"/>
<feBlend mode="normal" in2="BackgroundImageFix" result="effect1_dropShadow"/>
<feBlend mode="normal" in="SourceGraphic" in2="effect1_dropShadow" result="shape"/>
</filter>
</defs>
</svg>
