<svg width="74" height="33" viewBox="0 0 74 33" fill="none" xmlns="http://www.w3.org/2000/svg">
<g clip-path="url(#clip0_305_15)">
<path d="M29 0H5C2.23858 0 0 2.23858 0 5V28C0 30.7614 2.23858 33 5 33H29C31.7614 33 34 30.7614 34 28V5C34 2.23858 31.7614 0 29 0Z" fill="#FFA849"/>
<path d="M30 18.5C30 23.7467 25.7467 28 20.5 28H11V18.5C11 13.2533 15.2533 9 20.5 9C25.7467 9 30 13.2533 30 18.5Z" fill="#302C2E"/>
<path d="M28 16H17V17H28V16Z" fill="#FFA849"/>
<path d="M28 18H17V19H28V18Z" fill="#FFA849"/>
<path d="M22 20H17V21H22V20Z" fill="#FFA849"/>
<path d="M28 20H23V21H28V20Z" fill="#FFA849"/>
<path d="M4.71094 7.98438H7.7461V28H4.71094V7.98438ZM13.0312 10.375H9.8086V7.98438H19.2773V10.375H16.0664V28H13.0312V10.375Z" fill="white"/>
<path d="M39.99 15V7.3H41.343V13.768H45.391V15H39.99ZM46.1405 15L49.5285 7.245H50.7825L54.1705 15H52.7405L51.9595 13.141H48.3185L47.5265 15H46.1405ZM48.8135 11.942H51.4645L50.1335 8.862L48.8135 11.942ZM55.491 15V7.3H56.745L60.87 12.624V7.3H62.201V15H61.068L56.822 9.522V15H55.491ZM67.8334 15.132C66.6454 15.132 65.6811 14.758 64.9404 14.01C64.2071 13.2547 63.8404 12.3013 63.8404 11.15C63.8404 10.05 64.2144 9.11133 64.9624 8.334C65.7177 7.55667 66.6674 7.168 67.8114 7.168C68.4567 7.168 69.0067 7.256 69.4614 7.432C69.9161 7.60067 70.3524 7.861 70.7704 8.213L69.9124 9.236C69.5897 8.95733 69.2634 8.752 68.9334 8.62C68.6107 8.48067 68.2184 8.411 67.7564 8.411C67.0524 8.411 66.4584 8.67867 65.9744 9.214C65.4977 9.74933 65.2594 10.3947 65.2594 11.15C65.2594 11.9493 65.5014 12.6093 65.9854 13.13C66.4694 13.6433 67.1001 13.9 67.8774 13.9C68.5961 13.9 69.2157 13.7057 69.7364 13.317V11.876H67.7674V10.699H71.0454V13.933C70.1141 14.7323 69.0434 15.132 67.8334 15.132Z" fill="white"/>
<path d="M44.008 17.4V21.944L40.4 17.4H39.912V23H40.504V18.456L44.104 23H44.592V17.4H44.008ZM47.0118 22.488V20.408H49.9078V19.904H47.0118V17.912H50.2598V17.4H46.4198V23H50.3798V22.488H47.0118ZM57.0994 17.4L54.6914 21.552L52.2594 17.4H51.7714V23H52.3394V18.544L54.5394 22.288H54.8194L57.0194 18.52V23H57.5874V17.4H57.0994ZM63.436 23H64.14L61.548 19.936L63.972 17.4H63.292L60.004 20.784V17.4H59.412V23H60.004V21.528L61.148 20.368L63.436 23Z" fill="white"/>
</g>
<defs>
<clipPath id="clip0_305_15">
<rect width="80" height="41" fill="white" transform="translate(-4)"/>
</clipPath>
</defs>
</svg>
